<?xml version="1.0" encoding="UTF-8"?><svg xmlns="http://www.w3.org/2000/svg" xmlns:xlink="http://www.w3.org/1999/xlink" viewBox="0 0 750 500"><defs><style>.k{opacity:.74;}.l{stroke:#444;stroke-miterlimit:10;stroke-width:.21px;}.l,.m{fill:none;}.n{filter:url(#e);}.n,.o,.p,.q{opacity:.35;}.n,.o,.p,.q,.r{fill:#f2f2f2;}.o{filter:url(#c);}.s,.t{opacity:.79;}.s,.u{fill:#c4c4c4;}.v{fill:#f97316;}.p{filter:url(#i);}.w{fill:#4338ca;}.q{filter:url(#g);}</style><filter id="c" filterUnits="userSpaceOnUse"><feOffset dx="0" dy="0"/><feGaussianBlur result="d" stdDeviation="9.75"/><feFlood flood-color="#282828" flood-opacity=".15"/><feComposite in2="d" operator="in"/><feComposite in="SourceGraphic"/></filter><filter id="e" filterUnits="userSpaceOnUse"><feOffset dx="0" dy="0"/><feGaussianBlur result="f" stdDeviation="9.75"/><feFlood flood-color="#282828" flood-opacity=".15"/><feComposite in2="f" operator="in"/><feComposite in="SourceGraphic"/></filter><filter id="g" filterUnits="userSpaceOnUse"><feOffset dx="0" dy="0"/><feGaussianBlur result="h" stdDeviation="9.75"/><feFlood flood-color="#282828" flood-opacity=".15"/><feComposite in2="h" operator="in"/><feComposite in="SourceGraphic"/></filter><filter id="i" filterUnits="userSpaceOnUse"><feOffset dx="0" dy="0"/><feGaussianBlur result="j" stdDeviation="9.75"/><feFlood flood-color="#282828" flood-opacity=".15"/><feComposite in2="j" operator="in"/><feComposite in="SourceGraphic"/></filter></defs><g id="a"/><g id="b"><rect class="r" x=".67" y=".5" width="750" height="500"/><circle class="o" cx="681.48" cy="513.19" r="61.32"/><circle class="n" cx="-4.06" cy="259.57" r="61.32" transform="translate(-184.73 73.15) rotate(-45)"/><circle class="q" cx="81.04" cy="524.36" r="61.32" transform="translate(-449.39 511.62) rotate(-79.84)"/><circle class="p" cx="747.47" cy="-20.96" r="61.32"/><g><g><path class="w" d="M689.82,21.35c0,.74-.6,1.33-1.33,1.33s-1.33-.6-1.33-1.33,.6-1.33,1.33-1.33,1.33,.6,1.33,1.33Z"/><path class="w" d="M697.94,21.35c0,.74-.6,1.33-1.33,1.33s-1.33-.6-1.33-1.33,.6-1.33,1.33-1.33,1.33,.6,1.33,1.33Z"/><path class="w" d="M706.07,21.35c0,.74-.6,1.33-1.33,1.33s-1.33-.6-1.33-1.33,.6-1.33,1.33-1.33,1.33,.6,1.33,1.33Z"/><path class="w" d="M714.19,21.35c0,.74-.6,1.33-1.33,1.33s-1.33-.6-1.33-1.33,.6-1.33,1.33-1.33,1.33,.6,1.33,1.33Z"/><path class="w" d="M722.32,21.35c0,.74-.6,1.33-1.33,1.33s-1.33-.6-1.33-1.33,.6-1.33,1.33-1.33,1.33,.6,1.33,1.33Z"/><path class="w" d="M730.44,21.35c0,.74-.6,1.33-1.33,1.33s-1.33-.6-1.33-1.33,.6-1.33,1.33-1.33,1.33,.6,1.33,1.33Z"/></g><g><path class="w" d="M689.82,29.06c0,.74-.6,1.33-1.33,1.33s-1.33-.6-1.33-1.33,.6-1.33,1.33-1.33,1.33,.6,1.33,1.33Z"/><path class="w" d="M697.94,29.06c0,.74-.6,1.33-1.33,1.33s-1.33-.6-1.33-1.33,.6-1.33,1.33-1.33,1.33,.6,1.33,1.33Z"/><path class="w" d="M706.07,29.06c0,.74-.6,1.33-1.33,1.33s-1.33-.6-1.33-1.33,.6-1.33,1.33-1.33,1.33,.6,1.33,1.33Z"/><path class="w" d="M714.19,29.06c0,.74-.6,1.33-1.33,1.33s-1.33-.6-1.33-1.33,.6-1.33,1.33-1.33,1.33,.6,1.33,1.33Z"/><path class="w" d="M722.32,29.06c0,.74-.6,1.33-1.33,1.33s-1.33-.6-1.33-1.33,.6-1.33,1.33-1.33,1.33,.6,1.33,1.33Z"/><path class="w" d="M730.44,29.06c0,.74-.6,1.33-1.33,1.33s-1.33-.6-1.33-1.33,.6-1.33,1.33-1.33,1.33,.6,1.33,1.33Z"/></g><g><path class="w" d="M689.82,36.76c0,.74-.6,1.33-1.33,1.33s-1.33-.6-1.33-1.33,.6-1.33,1.33-1.33,1.33,.6,1.33,1.33Z"/><path class="w" d="M697.94,36.76c0,.74-.6,1.33-1.33,1.33s-1.33-.6-1.33-1.33,.6-1.33,1.33-1.33,1.33,.6,1.33,1.33Z"/><path class="w" d="M706.07,36.76c0,.74-.6,1.33-1.33,1.33s-1.33-.6-1.33-1.33,.6-1.33,1.33-1.33,1.33,.6,1.33,1.33Z"/><path class="w" d="M714.19,36.76c0,.74-.6,1.33-1.33,1.33s-1.33-.6-1.33-1.33,.6-1.33,1.33-1.33,1.33,.6,1.33,1.33Z"/><path class="w" d="M722.32,36.76c0,.74-.6,1.33-1.33,1.33s-1.33-.6-1.33-1.33,.6-1.33,1.33-1.33,1.33,.6,1.33,1.33Z"/><path class="w" d="M730.44,36.76c0,.74-.6,1.33-1.33,1.33s-1.33-.6-1.33-1.33,.6-1.33,1.33-1.33,1.33,.6,1.33,1.33Z"/></g></g><g><g><path class="v" d="M326.38,466.08c0,.74-.6,1.33-1.33,1.33s-1.33-.6-1.33-1.33,.6-1.33,1.33-1.33,1.33,.6,1.33,1.33Z"/><path class="v" d="M334.51,466.08c0,.74-.6,1.33-1.33,1.33s-1.33-.6-1.33-1.33,.6-1.33,1.33-1.33,1.33,.6,1.33,1.33Z"/><path class="v" d="M342.63,466.08c0,.74-.6,1.33-1.33,1.33s-1.33-.6-1.33-1.33,.6-1.33,1.33-1.33,1.33,.6,1.33,1.33Z"/><path class="v" d="M350.76,466.08c0,.74-.6,1.33-1.33,1.33s-1.33-.6-1.33-1.33,.6-1.33,1.33-1.33,1.33,.6,1.33,1.33Z"/><path class="v" d="M358.88,466.08c0,.74-.6,1.33-1.33,1.33s-1.33-.6-1.33-1.33,.6-1.33,1.33-1.33,1.33,.6,1.33,1.33Z"/><path class="v" d="M367.01,466.08c0,.74-.6,1.33-1.33,1.33s-1.33-.6-1.33-1.33,.6-1.33,1.33-1.33,1.33,.6,1.33,1.33Z"/></g><g><path class="v" d="M326.38,473.79c0,.74-.6,1.33-1.33,1.33s-1.33-.6-1.33-1.33,.6-1.33,1.33-1.33,1.33,.6,1.33,1.33Z"/><path class="v" d="M334.51,473.79c0,.74-.6,1.33-1.33,1.33s-1.33-.6-1.33-1.33,.6-1.33,1.33-1.33,1.33,.6,1.33,1.33Z"/><path class="v" d="M342.63,473.79c0,.74-.6,1.33-1.33,1.33s-1.33-.6-1.33-1.33,.6-1.33,1.33-1.33,1.33,.6,1.33,1.33Z"/><path class="v" d="M350.76,473.79c0,.74-.6,1.33-1.33,1.33s-1.33-.6-1.33-1.33,.6-1.33,1.33-1.33,1.33,.6,1.33,1.33Z"/><path class="v" d="M358.88,473.79c0,.74-.6,1.33-1.33,1.33s-1.33-.6-1.33-1.33,.6-1.33,1.33-1.33,1.33,.6,1.33,1.33Z"/><path class="v" d="M367.01,473.79c0,.74-.6,1.33-1.33,1.33s-1.33-.6-1.33-1.33,.6-1.33,1.33-1.33,1.33,.6,1.33,1.33Z"/></g><g><path class="v" d="M326.38,481.5c0,.74-.6,1.33-1.33,1.33s-1.33-.6-1.33-1.33,.6-1.33,1.33-1.33,1.33,.6,1.33,1.33Z"/><path class="v" d="M334.51,481.5c0,.74-.6,1.33-1.33,1.33s-1.33-.6-1.33-1.33,.6-1.33,1.33-1.33,1.33,.6,1.33,1.33Z"/><path class="v" d="M342.63,481.5c0,.74-.6,1.33-1.33,1.33s-1.33-.6-1.33-1.33,.6-1.33,1.33-1.33,1.33,.6,1.33,1.33Z"/><path class="v" d="M350.76,481.5c0,.74-.6,1.33-1.33,1.33s-1.33-.6-1.33-1.33,.6-1.33,1.33-1.33,1.33,.6,1.33,1.33Z"/><path class="v" d="M358.88,481.5c0,.74-.6,1.33-1.33,1.33s-1.33-.6-1.33-1.33,.6-1.33,1.33-1.33,1.33,.6,1.33,1.33Z"/><path class="v" d="M367.01,481.5c0,.74-.6,1.33-1.33,1.33s-1.33-.6-1.33-1.33,.6-1.33,1.33-1.33,1.33,.6,1.33,1.33Z"/></g></g><g><g><path class="w" d="M5.4,20.01c0,.74-.6,1.33-1.33,1.33s-1.33-.6-1.33-1.33,.6-1.33,1.33-1.33,1.33,.6,1.33,1.33Z"/><path class="w" d="M13.52,20.01c0,.74-.6,1.33-1.33,1.33s-1.33-.6-1.33-1.33,.6-1.33,1.33-1.33,1.33,.6,1.33,1.33Z"/><path class="w" d="M21.65,20.01c0,.74-.6,1.33-1.33,1.33s-1.33-.6-1.33-1.33,.6-1.33,1.33-1.33,1.33,.6,1.33,1.33Z"/></g><g><path class="w" d="M5.4,27.72c0,.74-.6,1.33-1.33,1.33s-1.33-.6-1.33-1.33,.6-1.33,1.33-1.33,1.33,.6,1.33,1.33Z"/><path class="w" d="M13.52,27.72c0,.74-.6,1.33-1.33,1.33s-1.33-.6-1.33-1.33,.6-1.33,1.33-1.33,1.33,.6,1.33,1.33Z"/><path class="w" d="M21.65,27.72c0,.74-.6,1.33-1.33,1.33s-1.33-.6-1.33-1.33,.6-1.33,1.33-1.33,1.33,.6,1.33,1.33Z"/></g><g><circle class="w" cx="4.06" cy="35.43" r="1.33"/><circle class="w" cx="12.19" cy="35.43" r="1.33"/><circle class="w" cx="20.31" cy="35.43" r="1.33"/></g></g><g><g><path class="v" d="M680.15,465.76c.74,0,1.33,.6,1.33,1.33s-.6,1.33-1.33,1.33-1.33-.6-1.33-1.33,.6-1.33,1.33-1.33Z"/><path class="v" d="M680.15,457.64c.74,0,1.33,.6,1.33,1.33s-.6,1.33-1.33,1.33-1.33-.6-1.33-1.33,.6-1.33,1.33-1.33Z"/><path class="v" d="M680.15,449.51c.74,0,1.33,.6,1.33,1.33s-.6,1.33-1.33,1.33-1.33-.6-1.33-1.33,.6-1.33,1.33-1.33Z"/><path class="v" d="M680.15,441.39c.74,0,1.33,.6,1.33,1.33s-.6,1.33-1.33,1.33-1.33-.6-1.33-1.33,.6-1.33,1.33-1.33Z"/><path class="v" d="M680.15,433.26c.74,0,1.33,.6,1.33,1.33s-.6,1.33-1.33,1.33-1.33-.6-1.33-1.33,.6-1.33,1.33-1.33Z"/><path class="v" d="M680.15,425.14c.74,0,1.33,.6,1.33,1.33s-.6,1.33-1.33,1.33-1.33-.6-1.33-1.33,.6-1.33,1.33-1.33Z"/></g><g><path class="v" d="M687.86,465.76c.74,0,1.33,.6,1.33,1.33s-.6,1.33-1.33,1.33-1.33-.6-1.33-1.33,.6-1.33,1.33-1.33Z"/><path class="v" d="M687.86,457.64c.74,0,1.33,.6,1.33,1.33s-.6,1.33-1.33,1.33-1.33-.6-1.33-1.33,.6-1.33,1.33-1.33Z"/><path class="v" d="M687.86,449.51c.74,0,1.33,.6,1.33,1.33s-.6,1.33-1.33,1.33-1.33-.6-1.33-1.33,.6-1.33,1.33-1.33Z"/><path class="v" d="M687.86,441.39c.74,0,1.33,.6,1.33,1.33s-.6,1.33-1.33,1.33-1.33-.6-1.33-1.33,.6-1.33,1.33-1.33Z"/><path class="v" d="M687.86,433.26c.74,0,1.33,.6,1.33,1.33s-.6,1.33-1.33,1.33-1.33-.6-1.33-1.33,.6-1.33,1.33-1.33Z"/><path class="v" d="M687.86,425.14c.74,0,1.33,.6,1.33,1.33s-.6,1.33-1.33,1.33-1.33-.6-1.33-1.33,.6-1.33,1.33-1.33Z"/></g><g><path class="v" d="M695.57,465.76c.74,0,1.33,.6,1.33,1.33s-.6,1.33-1.33,1.33-1.33-.6-1.33-1.33,.6-1.33,1.33-1.33Z"/><path class="v" d="M695.57,457.64c.74,0,1.33,.6,1.33,1.33s-.6,1.33-1.33,1.33-1.33-.6-1.33-1.33,.6-1.33,1.33-1.33Z"/><path class="v" d="M695.57,449.51c.74,0,1.33,.6,1.33,1.33s-.6,1.33-1.33,1.33-1.33-.6-1.33-1.33,.6-1.33,1.33-1.33Z"/><path class="v" d="M695.57,441.39c.74,0,1.33,.6,1.33,1.33s-.6,1.33-1.33,1.33-1.33-.6-1.33-1.33,.6-1.33,1.33-1.33Z"/><path class="v" d="M695.57,433.26c.74,0,1.33,.6,1.33,1.33s-.6,1.33-1.33,1.33-1.33-.6-1.33-1.33,.6-1.33,1.33-1.33Z"/><path class="v" d="M695.57,425.14c.74,0,1.33,.6,1.33,1.33s-.6,1.33-1.33,1.33-1.33-.6-1.33-1.33,.6-1.33,1.33-1.33Z"/></g></g><g><g><path class="v" d="M22.98,479.28c.74,0,1.33,.6,1.33,1.33s-.6,1.33-1.33,1.33-1.33-.6-1.33-1.33,.6-1.33,1.33-1.33Z"/><path class="v" d="M22.98,471.16c.74,0,1.33,.6,1.33,1.33s-.6,1.33-1.33,1.33-1.33-.6-1.33-1.33,.6-1.33,1.33-1.33Z"/><path class="v" d="M22.98,463.03c.74,0,1.33,.6,1.33,1.33s-.6,1.33-1.33,1.33-1.33-.6-1.33-1.33,.6-1.33,1.33-1.33Z"/><path class="v" d="M22.98,454.91c.74,0,1.33,.6,1.33,1.33s-.6,1.33-1.33,1.33-1.33-.6-1.33-1.33,.6-1.33,1.33-1.33Z"/><path class="v" d="M22.98,446.78c.74,0,1.33,.6,1.33,1.33s-.6,1.33-1.33,1.33-1.33-.6-1.33-1.33,.6-1.33,1.33-1.33Z"/><path class="v" d="M22.98,438.66c.74,0,1.33,.6,1.33,1.33s-.6,1.33-1.33,1.33-1.33-.6-1.33-1.33,.6-1.33,1.33-1.33Z"/></g><g><circle class="v" cx="30.69" cy="480.62" r="1.33"/><circle class="v" cx="30.69" cy="472.49" r="1.33"/><circle class="v" cx="30.69" cy="464.37" r="1.33"/><circle class="v" cx="30.69" cy="456.24" r="1.33"/><circle class="v" cx="30.69" cy="448.12" r="1.33"/><circle class="v" cx="30.69" cy="439.99" r="1.33"/></g><g><path class="v" d="M38.4,479.28c.74,0,1.33,.6,1.33,1.33s-.6,1.33-1.33,1.33-1.33-.6-1.33-1.33,.6-1.33,1.33-1.33Z"/><path class="v" d="M38.4,471.16c.74,0,1.33,.6,1.33,1.33s-.6,1.33-1.33,1.33-1.33-.6-1.33-1.33,.6-1.33,1.33-1.33Z"/><path class="v" d="M38.4,463.03c.74,0,1.33,.6,1.33,1.33s-.6,1.33-1.33,1.33-1.33-.6-1.33-1.33,.6-1.33,1.33-1.33Z"/><path class="v" d="M38.4,454.91c.74,0,1.33,.6,1.33,1.33s-.6,1.33-1.33,1.33-1.33-.6-1.33-1.33,.6-1.33,1.33-1.33Z"/><path class="v" d="M38.4,446.78c.74,0,1.33,.6,1.33,1.33s-.6,1.33-1.33,1.33-1.33-.6-1.33-1.33,.6-1.33,1.33-1.33Z"/><path class="v" d="M38.4,438.66c.74,0,1.33,.6,1.33,1.33s-.6,1.33-1.33,1.33-1.33-.6-1.33-1.33,.6-1.33,1.33-1.33Z"/></g></g><g><g><path class="v" d="M549.3,30.1c.74,0,1.33,.6,1.33,1.33s-.6,1.33-1.33,1.33-1.33-.6-1.33-1.33,.6-1.33,1.33-1.33Z"/><path class="v" d="M549.3,21.97c.74,0,1.33,.6,1.33,1.33s-.6,1.33-1.33,1.33-1.33-.6-1.33-1.33,.6-1.33,1.33-1.33Z"/><path class="v" d="M549.3,13.85c.74,0,1.33,.6,1.33,1.33s-.6,1.33-1.33,1.33-1.33-.6-1.33-1.33,.6-1.33,1.33-1.33Z"/><path class="v" d="M549.3,5.72c.74,0,1.33,.6,1.33,1.33s-.6,1.33-1.33,1.33-1.33-.6-1.33-1.33,.6-1.33,1.33-1.33Z"/><path class="v" d="M549.3-2.4c.74,0,1.33,.6,1.33,1.33s-.6,1.33-1.33,1.33-1.33-.6-1.33-1.33,.6-1.33,1.33-1.33Z"/></g><g><circle class="v" cx="557.01" cy="31.43" r="1.33"/><circle class="v" cx="557.01" cy="23.31" r="1.33"/><circle class="v" cx="557.01" cy="15.18" r="1.33"/><circle class="v" cx="557.01" cy="7.06" r="1.33"/><circle class="v" cx="557.01" cy="-1.07" r="1.33"/></g><g><path class="v" d="M564.72,30.1c.74,0,1.33,.6,1.33,1.33s-.6,1.33-1.33,1.33-1.33-.6-1.33-1.33,.6-1.33,1.33-1.33Z"/><path class="v" d="M564.72,21.97c.74,0,1.33,.6,1.33,1.33s-.6,1.33-1.33,1.33-1.33-.6-1.33-1.33,.6-1.33,1.33-1.33Z"/><path class="v" d="M564.72,13.85c.74,0,1.33,.6,1.33,1.33s-.6,1.33-1.33,1.33-1.33-.6-1.33-1.33,.6-1.33,1.33-1.33Z"/><path class="v" d="M564.72,5.72c.74,0,1.33,.6,1.33,1.33s-.6,1.33-1.33,1.33-1.33-.6-1.33-1.33,.6-1.33,1.33-1.33Z"/><path class="v" d="M564.72-2.4c.74,0,1.33,.6,1.33,1.33s-.6,1.33-1.33,1.33-1.33-.6-1.33-1.33,.6-1.33,1.33-1.33Z"/></g></g><g><g><path class="v" d="M742.54,179.2c0-.74,.6-1.33,1.33-1.33s1.33,.6,1.33,1.33-.6,1.33-1.33,1.33-1.33-.6-1.33-1.33Z"/><path class="v" d="M734.42,179.2c0-.74,.6-1.33,1.33-1.33s1.33,.6,1.33,1.33-.6,1.33-1.33,1.33-1.33-.6-1.33-1.33Z"/></g><g><path class="v" d="M742.54,171.49c0-.74,.6-1.33,1.33-1.33s1.33,.6,1.33,1.33-.6,1.33-1.33,1.33-1.33-.6-1.33-1.33Z"/><path class="v" d="M734.42,171.49c0-.74,.6-1.33,1.33-1.33s1.33,.6,1.33,1.33-.6,1.33-1.33,1.33-1.33-.6-1.33-1.33Z"/></g><g><path class="v" d="M742.54,163.78c0-.74,.6-1.33,1.33-1.33s1.33,.6,1.33,1.33-.6,1.33-1.33,1.33-1.33-.6-1.33-1.33Z"/><path class="v" d="M734.42,163.78c0-.74,.6-1.33,1.33-1.33s1.33,.6,1.33,1.33-.6,1.33-1.33,1.33-1.33-.6-1.33-1.33Z"/></g></g><g class="k"><rect class="u" x="639.17" y="67.61" width="2.19" height="2.19"/><rect class="u" x="639.17" y="83.04" width="2.19" height="2.19"/><rect class="u" x="639.17" y="98.48" width="2.19" height="2.19"/><rect class="u" x="639.17" y="113.91" width="2.19" height="2.19"/><rect class="u" x="639.17" y="129.35" width="2.19" height="2.19"/></g><g class="k"><rect class="u" x="105.17" y="375.73" width="2.19" height="2.19"/><rect class="u" x="105.17" y="391.16" width="2.19" height="2.19"/><rect class="u" x="105.17" y="406.6" width="2.19" height="2.19"/><rect class="u" x="105.17" y="422.03" width="2.19" height="2.19"/><rect class="u" x="105.17" y="437.47" width="2.19" height="2.19"/></g><g class="k"><rect class="u" x="37.3" y="2.15" width="2.19" height="2.19"/><rect class="u" x="37.3" y="17.59" width="2.19" height="2.19"/><rect class="u" x="37.3" y="33.02" width="2.19" height="2.19"/><rect class="u" x="37.3" y="48.46" width="2.19" height="2.19"/></g><g class="k"><rect class="u" x="726.68" y="360.29" width="2.19" height="2.19"/><rect class="u" x="726.68" y="375.73" width="2.19" height="2.19"/><rect class="u" x="726.68" y="391.16" width="2.19" height="2.19"/><rect class="u" x="726.68" y="406.6" width="2.19" height="2.19"/><rect class="u" x="726.68" y="422.03" width="2.19" height="2.19"/></g><g><rect class="v" x="635.86" y="202.95" width="10.99" height="3.76"/><rect class="v" x="635.86" y="202.95" width="10.99" height="3.76" transform="translate(436.53 846.19) rotate(-90)"/></g><g><rect class="v" x="302.12" y="472.05" width="10.99" height="3.76"/><rect class="v" x="302.12" y="472.05" width="10.99" height="3.76" transform="translate(-166.31 781.54) rotate(-90)"/></g><polygon class="s" points="44.99 65.37 41.37 65.37 41.37 61.76 37.61 61.76 37.61 65.37 33.99 65.37 33.99 69.13 37.61 69.13 37.61 72.75 41.37 72.75 41.37 69.13 44.99 69.13 44.99 65.37"/><polygon class="s" points="10.11 412.4 6.49 412.4 6.49 408.79 2.73 408.79 2.73 412.4 -.89 412.4 -.89 416.16 2.73 416.16 2.73 419.78 6.49 419.78 6.49 416.16 10.11 416.16 10.11 412.4"/><polygon class="s" points="112.86 351.75 109.24 351.75 109.24 348.13 105.48 348.13 105.48 351.75 101.86 351.75 101.86 355.51 105.48 355.51 105.48 359.12 109.24 359.12 109.24 355.51 112.86 355.51 112.86 351.75"/><polygon class="s" points="652.35 373.85 648.74 373.85 648.74 370.23 644.98 370.23 644.98 373.85 641.36 373.85 641.36 377.61 644.98 377.61 644.98 381.22 648.74 381.22 648.74 377.61 652.35 377.61 652.35 373.85"/><g class="t"><g><rect class="u" x="741.59" y="59.88" width="10.99" height="3.76"/><rect class="u" x="745.21" y="56.26" width="3.76" height="10.99"/></g></g><polygon class="s" points="509.14 70.87 505.52 70.87 505.52 67.25 501.76 67.25 501.76 70.87 498.15 70.87 498.15 74.63 501.76 74.63 501.76 78.25 505.52 78.25 505.52 74.63 509.14 74.63 509.14 70.87"/><g><rect class="r" x="111.3" y="169.61" width="10.99" height="3.76"/><rect class="r" x="111.3" y="169.61" width="10.99" height="3.76" transform="translate(-54.7 288.28) rotate(-90)"/></g><g><rect class="r" x="689.78" y="296.39" width="10.99" height="3.76"/><rect class="r" x="689.78" y="296.39" width="10.99" height="3.76" transform="translate(397.01 993.54) rotate(-90)"/></g><g><rect class="r" x="498.15" y="450.2" width="10.99" height="3.76"/><rect class="r" x="498.15" y="450.2" width="10.99" height="3.76" transform="translate(51.56 955.72) rotate(-90)"/></g><g><rect class="w" x="728.92" y="477.4" width="10.99" height="3.76"/><rect class="w" x="728.92" y="477.4" width="10.99" height="3.76" transform="translate(255.13 1213.7) rotate(-90)"/></g><g><rect class="w" x="81.04" y="1.36" width="10.99" height="3.76"/><rect class="w" x="81.04" y="1.36" width="10.99" height="3.76" transform="translate(83.3 89.78) rotate(-90)"/></g><g><line class="l" x1="679.22" y1="144.67" x2="733.05" y2="88.22"/><line class="l" x1="695.4" y1="142.14" x2="749.24" y2="85.69"/><line class="l" x1="711.58" y1="139.6" x2="765.42" y2="83.15"/></g><g><line class="l" x1="733.28" y1="330.91" x2="787.11" y2="274.46"/><line class="l" x1="749.46" y1="328.38" x2="803.29" y2="271.92"/></g><g><line class="l" x1="205.52" y1="518.5" x2="259.35" y2="462.05"/><line class="l" x1="221.7" y1="515.97" x2="275.53" y2="459.51"/><line class="l" x1="237.88" y1="513.43" x2="291.71" y2="456.98"/></g><g><line class="l" x1="125.28" y1="30.76" x2="179.11" y2="-25.69"/><line class="l" x1="141.46" y1="28.23" x2="195.29" y2="-28.23"/><line class="l" x1="157.64" y1="25.69" x2="211.47" y2="-30.76"/></g><g><line class="l" x1="455.05" y1="19.66" x2="508.88" y2="-36.79"/><line class="l" x1="471.23" y1="17.13" x2="525.07" y2="-39.32"/><line class="l" x1="487.41" y1="14.59" x2="541.25" y2="-41.86"/></g><g><line class="l" x1="-40.44" y1="393.07" x2="13.4" y2="336.61"/><line class="l" x1="-24.26" y1="390.53" x2="29.58" y2="334.08"/></g><circle class="w" cx="625.1" cy="3.24" r="14.6" transform="translate(180.79 442.97) rotate(-45)"/><circle class="w" cx="53" cy="217.57" r="14.6" transform="translate(-106.47 60.36) rotate(-31.72)"/><circle class="v" cx="571.61" cy="500.5" r="14.6"/><circle class="v" cx="139.88" cy="506.5" r="14.6"/><rect class="m" x=".67" y=".5" width="750" height="500"/></g></svg>