<?xml version="1.0" encoding="UTF-8"?><svg id="a" xmlns="http://www.w3.org/2000/svg" viewBox="0 0 494.02 114.06"><defs><style>.b{fill:#3730a3;}</style></defs><path class="b" d="M20.65,12.23V96.62h51.23v6.63H13.63V12.23h7.02Z"/><path class="b" d="M421.64,12.36c4.16,0,7.54,3.38,7.54,7.54V63.2c.13,26.91-16.25,42-42.91,42s-42.91-14.43-42.91-42.26V19.9c0-4.16,3.38-7.54,7.54-7.54h10.53c4.16,0,7.54,3.38,7.54,7.54V62.94c0,14.3,6.89,20.28,17.29,20.28s17.29-6.24,17.29-20.02V19.9c0-4.16,3.38-7.54,7.54-7.54h10.53Z"/><path class="b" d="M446.34,96.75V18.73c0-3.59,2.91-6.49,6.49-6.49h12.63c3.59,0,6.49,2.91,6.49,6.49V96.75c0,3.59-2.91,6.49-6.49,6.49h-12.63c-3.59,0-6.49-2.91-6.49-6.49Z"/><polygon class="b" points="200.34 18.6 233.24 18.6 233.24 12.36 160.43 12.36 160.43 18.6 193.32 18.6 193.32 51.73 200.34 51.73 200.34 18.6"/><rect class="b" x="193.32" y="63.11" width="7.02" height="40.14"/><path class="b" d="M283.43,12.23h-32.9c-3.37,0-6.11,2.73-6.11,6.11v25.22l11.85,11.85c1.11,1.11,1.11,2.9,0,4l-11.85,11.85v25.87c0,3.37,2.73,6.11,6.11,6.11h32.9c32.63,0,47.59-21.06,47.59-46.16s-15.47-44.86-47.59-44.86Zm0,69.3h-13.52V33.69h13.52c15.73,0,22.1,10.66,22.1,23.14s-5.72,24.7-22.1,24.7Z"/><polygon class="b" points="237.67 70.96 244.42 64.2 244.42 64.14 237.64 70.93 237.67 70.96"/><polygon class="b" points="251.2 57.42 251.17 57.39 244.42 64.14 244.42 64.2 251.2 57.42"/><polygon class="b" points="244.42 53.93 244.42 54.23 244.72 54.23 244.42 53.93"/><path class="b" d="M253.03,55.71l-13.66-13.66c-.94-.94-2.47-.94-3.41,0-.94,.94-.94,2.47,0,3.41l4.64,4.64c1.52,1.52,.44,4.12-1.71,4.12H93.86V18.86h55.91v-6.63h-62.8V103.25h64.36v-6.76h-57.47V60.6H238.59c2.15,0,3.23,2.61,1.71,4.13l-4.49,4.49c-.94,.94-.94,2.47,0,3.41l.15,.15c.94,.94,2.47,.94,3.41,0l13.66-13.66c.94-.94,.94-2.47,0-3.41Z"/></svg>